<?xml version="1.0" encoding="utf-8"?>
<!-- Generator: Adobe Illustrator 16.0.0, SVG Export Plug-In . SVG Version: 6.00 Build 0)  -->
<!DOCTYPE svg PUBLIC "-//W3C//DTD SVG 1.1//EN" "http://www.w3.org/Graphics/SVG/1.1/DTD/svg11.dtd">
<svg version="1.1" id="Layer_1" xmlns="http://www.w3.org/2000/svg" xmlns:xlink="http://www.w3.org/1999/xlink" x="0px" y="0px"
	 width="296px" height="168.5px" viewBox="0 0 296 168.5" enable-background="new 0 0 296 168.5" xml:space="preserve">
<path d="M65.526,143.668c0.124,1.365,1.759,2.306,3.653,2.101l0.381-0.043c1.894-0.206,3.328-1.48,3.204-2.847l-2.17-23.9
	c-0.124-1.366-1.76-2.307-3.653-2.101l-0.382,0.042c-1.892,0.206-3.326,1.482-3.203,2.849L65.526,143.668z"/>
<path d="M47.096,143.833c-0.617,1.225-2.484,1.5-4.168,0.613l-0.339-0.181c-1.685-0.888-2.551-2.601-1.933-3.826l10.798-21.431
	c0.619-1.225,2.485-1.499,4.17-0.612l0.339,0.18c1.684,0.889,2.549,2.602,1.932,3.827L47.096,143.833z"/>
<path d="M63.614,119.516c0.728,1.176,2.653,1.377,4.3,0.449l0.331-0.188c1.647-0.928,2.391-2.631,1.664-3.807L57.164,95.39
	c-0.728-1.175-2.653-1.377-4.299-0.449l-0.332,0.187c-1.646,0.928-2.391,2.634-1.663,3.81L63.614,119.516z"/>
<path d="M202.025,163.144c0.125,1.365,1.76,2.306,3.653,2.101l0.381-0.043c1.894-0.206,3.328-1.48,3.204-2.847l-2.17-23.9
	c-0.124-1.366-1.76-2.307-3.652-2.101l-0.383,0.042c-1.893,0.206-3.326,1.482-3.203,2.849L202.025,163.144z"/>
<path d="M200.113,122.991c0.729,1.176,2.654,1.377,4.301,0.449l0.33-0.188c1.646-0.928,2.391-2.631,1.664-3.807l-12.744-20.58
	c-0.729-1.175-2.653-1.377-4.299-0.449l-0.332,0.187c-1.646,0.928-2.391,2.634-1.663,3.81L200.113,122.991z"/>
<path d="M57.999,120.423c0.157,1.376-1.23,2.726-3.098,3.017l-0.375,0.058c-1.868,0.291-3.507-0.586-3.664-1.96l-2.738-24.049
	c-0.156-1.376,1.23-2.726,3.098-3.017l0.375-0.058c1.867-0.292,3.507,0.586,3.664,1.96L57.999,120.423z"/>
<path d="M121.23,161.724c-0.617,1.225-2.484,1.5-4.168,0.613l-0.34-0.181c-1.684-0.888-2.551-2.601-1.933-3.826l10.798-21.431
	c0.619-1.225,2.486-1.499,4.17-0.612l0.34,0.18c1.684,0.889,2.549,2.602,1.932,3.827L121.23,161.724z"/>
<path d="M132.132,124.313c0.157,1.376-1.229,2.726-3.098,3.017l-0.375,0.058c-1.868,0.291-3.508-0.586-3.664-1.96l-2.738-24.049
	c-0.156-1.376,1.23-2.726,3.098-3.017l0.375-0.058c1.867-0.292,3.508,0.586,3.664,1.96L132.132,124.313z"/>
<path d="M48.288,95.076c0,2.632,1.716,4.756,3.831,4.737l0.426-0.003c2.117-0.018,3.83-2.167,3.83-4.802l-0.016-46.125
	c-0.001-2.636-1.716-4.757-3.832-4.74l-0.426,0.003c-2.117,0.018-3.83,2.169-3.83,4.804L48.288,95.076z"/>
<path d="M136.788,95.076c0,2.632,1.716,4.756,3.831,4.737l0.426-0.003c2.117-0.018,3.83-2.167,3.83-4.802l-0.016-46.125
	c-0.001-2.636-1.716-4.757-3.832-4.74l-0.426,0.003c-2.117,0.018-3.83,2.169-3.83,4.804L136.788,95.076z"/>
<path d="M69.666,65.493c1.121,1.232,1.705,2.349,0.438,3.389l-1.021,0.836c-1.266,1.042-2.306,0.09-3.427-1.141L52.123,55.506
	c-1.123-1.231-1.003-3.073,0.263-4.114l1.02-0.836c1.267-1.041,3.203-0.887,4.325,0.344L69.666,65.493z"/>
<path d="M71.689,67.998c-1.258,1.665-3.135,2.451-4.192,1.753l-0.853-0.561c-1.059-0.696-0.897-2.611,0.359-4.276l14.166-18.762
	c1.256-1.666,3.134-2.45,4.192-1.754l0.852,0.56c1.057,0.695,0.896,2.612-0.362,4.276L71.689,67.998z"/>
<path d="M174.079,77.458c1.121,1.232,1.705,2.349,0.438,3.389l-1.02,0.837c-1.267,1.041-2.307,0.09-3.428-1.141l-13.533-13.072
	c-1.123-1.231-1.003-3.073,0.263-4.114l1.02-0.836c1.267-1.041,3.203-0.887,4.325,0.344L174.079,77.458z"/>
<path d="M189.689,77.226c-1.259,1.665-3.135,2.451-4.193,1.753l-0.853-0.561c-1.059-0.696-0.897-2.611,0.359-4.276l14.165-18.762
	c1.257-1.666,3.135-2.45,4.193-1.754l0.852,0.56c1.057,0.695,0.896,2.612-0.363,4.276L189.689,77.226z"/>
<path d="M29.986,58.034c-1.642,0.28-2.897,0.17-3.091-1.458l-0.155-1.31c-0.195-1.628,1.167-1.991,2.808-2.272l18.305-4.355
	c1.642-0.283,3.129,0.811,3.323,2.439l0.155,1.31c0.193,1.627-0.979,3.176-2.62,3.457L29.986,58.034z"/>
<path d="M26.786,58.388c-0.724-1.957-0.375-3.961,0.783-4.477l0.932-0.416c1.157-0.516,2.683,0.651,3.408,2.607l8.17,22.043
	c0.726,1.957,0.375,3.961-0.783,4.477l-0.929,0.416c-1.156,0.516-2.684-0.653-3.407-2.61L26.786,58.388z"/>
<path d="M110.861,60.423c-1.642,0.28-2.897,0.17-3.091-1.458l-0.155-1.31c-0.195-1.628,1.167-1.991,2.808-2.272l18.305-4.355
	c1.642-0.283,3.129,0.811,3.323,2.439l0.155,1.31c0.193,1.627-0.979,3.176-2.62,3.457L110.861,60.423z"/>
<path d="M93.926,62.101c-0.724-1.957-0.375-3.961,0.783-4.477l0.932-0.416c1.157-0.516,2.683,0.651,3.408,2.607l8.17,22.044
	c0.726,1.955,0.375,3.961-0.783,4.477l-0.929,0.416c-1.156,0.516-2.684-0.654-3.407-2.611L93.926,62.101z"/>
<circle cx="52.775" cy="33.66" r="15.864"/>
<circle fill="#FFFFFF" cx="58.54" cy="33.66" r="2.169"/>
<circle cx="183.943" cy="33.66" r="15.863"/>
<circle fill="#FFFFFF" cx="189.708" cy="33.66" r="2.169"/>
</svg>
